<svg width="58" height="58" viewBox="0 0 58 58" fill="none" xmlns="http://www.w3.org/2000/svg">
<rect x="0.5" y="0.5" width="57" height="57" fill="black"/>
<rect x="0.5" y="0.5" width="57" height="57" stroke="black"/>
<path d="M57 1H1V57H57V1Z" fill="white"/>
<path d="M28.9666 38.5163C28.9666 38.6342 28.8583 38.6924 28.6434 38.6924L26.2767 38.7069C26.1587 38.7069 26.0957 38.7021 26.086 38.6924C25.939 38.6439 25.0941 37.4226 23.5496 35.0316C22.0051 32.6405 21.2087 31.4402 21.1602 31.4289C20.9841 31.5565 20.1165 32.8166 18.5575 35.2077C17.0583 37.5308 16.2344 38.6924 16.0873 38.6924H13.6462C13.4201 38.6924 13.3086 38.6149 13.3086 38.4565V36.3402C13.3086 36.1544 14.2295 34.8377 16.0728 32.3934C17.9162 29.9474 18.837 28.6275 18.837 28.4304C18.837 28.2155 17.921 26.8714 16.0873 24.4012C14.2537 21.931 13.3377 20.6224 13.3377 20.4754V18.212C13.3377 18.0747 13.4701 18.0068 13.7351 18.0068C14.0001 18.0068 14.4217 18.0165 14.9694 18.0359C15.5187 18.0553 15.929 18.065 16.2037 18.065C16.2521 18.065 16.4331 18.2912 16.7481 18.7419C17.669 20.1927 19.0616 22.3591 20.9227 25.2397C20.9712 25.3075 21.0552 25.3818 21.1731 25.4594C21.3104 25.3915 22.1586 24.1314 23.716 21.6806C25.254 19.2702 26.0925 18.0634 26.2298 18.0634H28.553C28.8082 18.0634 28.9359 18.1328 28.9359 18.2686V20.5319C28.9359 20.7775 28.0215 22.1152 26.1943 24.545C24.3655 26.9764 23.4527 28.2543 23.4527 28.3819C23.4527 28.5386 24.3719 29.8699 26.2088 32.374C28.0473 34.8781 28.9649 36.219 28.9649 36.3951V38.5115L28.9666 38.5163Z" fill="black"/>
<path d="M47.4761 35.2966C47.4761 35.4145 47.3824 35.5809 47.1966 35.7958C45.2854 38.0107 42.9186 39.119 40.0963 39.119C37.2739 39.119 34.8037 38.0462 33.0395 35.8992C31.3933 33.8991 30.5693 31.3998 30.5693 28.4014C30.5693 25.4029 31.4078 22.8939 33.0831 20.8745C34.8667 18.6984 37.2238 17.6111 40.1544 17.6111C43.085 17.6111 45.4228 18.616 47.0496 20.6257C47.2063 20.8309 47.2855 21.0038 47.2855 21.1411C47.2855 21.3075 47.0254 21.8002 46.5068 22.6193C45.9866 23.4384 45.6732 23.8471 45.5665 23.8471C45.4389 23.8471 45.14 23.6064 44.6699 23.1266C44.0915 22.5385 43.5471 22.0975 43.0382 21.8035C42.1949 21.3236 41.2643 21.0829 40.2449 21.0829C38.3046 21.0829 36.7941 21.8228 35.7165 23.3027C34.7552 24.6258 34.2754 26.2915 34.2754 28.3012C34.2754 30.311 34.7504 31.9911 35.702 33.3434C36.7795 34.862 38.2852 35.6229 40.2158 35.6229C41.1755 35.6229 42.1028 35.3822 42.9946 34.9024C43.5826 34.589 44.1804 34.1431 44.7878 33.5647C45.2967 33.0849 45.5762 32.8442 45.6263 32.8442C45.6845 32.8442 46.0092 33.2335 46.5973 34.0122C47.1853 34.7909 47.4794 35.2206 47.4794 35.2982L47.4761 35.2966Z" fill="black"/>
</svg>
