<svg width="207" height="58" viewBox="0 0 207 58" fill="none" xmlns="http://www.w3.org/2000/svg">
<rect x="0.5" y="0.5" width="205.293" height="57" fill="black"/>
<rect x="0.5" y="0.5" width="205.293" height="57" stroke="black"/>
<path d="M79.4129 27.6679L75.8635 22.5643L72.3771 27.6679H68.4707L73.9103 20.1911L68.7437 12.9663H72.6081L75.9895 17.7338L79.3078 12.9663H82.9832L77.8587 20.0651L83.3403 27.6679H79.4129Z" fill="white"/>
<path d="M84.0332 22.0136C84.0332 18.6048 86.6504 16.1653 90.1723 16.1653C92.1271 16.1653 93.7588 16.8761 94.8251 18.1686L93.1449 19.7195C92.3856 18.8471 91.4324 18.3947 90.3016 18.3947C88.1852 18.3947 86.6827 19.8811 86.6827 22.0136C86.6827 24.1461 88.1852 25.6324 90.3016 25.6324C91.4324 25.6324 92.3856 25.1801 93.1449 24.2915L94.8251 25.8425C93.7588 27.1511 92.1271 27.8619 90.1562 27.8619C86.6504 27.8619 84.0332 25.4224 84.0332 22.0136Z" fill="white"/>
<path d="M96.5859 16.3574H99.2031V25.5338H104.874V27.6663H96.5859V16.3574Z" fill="white"/>
<path d="M106.102 22.6921V16.3591H108.719V22.5952C108.719 24.7439 109.656 25.6324 111.239 25.6324C112.822 25.6324 113.759 24.7439 113.759 22.5952V16.3591H116.344V22.6921C116.344 26.0202 114.438 27.8619 111.223 27.8619C108.008 27.8619 106.102 26.0202 106.102 22.6921Z" fill="white"/>
<path d="M118.041 26.5533L118.93 24.5823C119.883 25.277 121.304 25.7617 122.662 25.7617C124.212 25.7617 124.843 25.2447 124.843 24.55C124.843 22.4336 118.267 23.8876 118.267 19.6872C118.267 17.7647 119.818 16.1653 123.033 16.1653C124.455 16.1653 125.909 16.5045 126.959 17.1669L126.151 19.1541C125.101 18.5563 124.019 18.2655 123.017 18.2655C121.466 18.2655 120.868 18.8471 120.868 19.5579C120.868 21.642 127.444 20.2042 127.444 24.3562C127.444 26.2463 125.876 27.8619 122.645 27.8619C120.852 27.8619 119.043 27.3288 118.041 26.5533Z" fill="white"/>
<path d="M129.236 16.3574H131.854V27.6663H129.236V16.3574Z" fill="white"/>
<path d="M145.343 16.3574L140.448 27.6663H137.863L132.984 16.3574H135.812L139.253 24.4352L142.742 16.3574H145.343Z" fill="white"/>
<path d="M155.037 25.5678V27.668H146.28V16.3591H154.827V18.4594H148.881V20.915H154.132V22.9506H148.881V25.5678H155.037Z" fill="white"/>
<path d="M69.0371 41.4003C69.0371 37.9915 71.6543 35.552 75.1762 35.552C77.131 35.552 78.7628 36.2628 79.829 37.5553L78.1488 39.1062C77.3895 38.2338 76.4364 37.7815 75.3055 37.7815C73.1891 37.7815 71.6866 39.2678 71.6866 41.4003C71.6866 43.5328 73.1891 45.0192 75.3055 45.0192C76.4364 45.0192 77.3895 44.5668 78.1488 43.6782L79.829 45.2292C78.7628 46.5378 77.131 47.2486 75.1601 47.2486C71.6543 47.2486 69.0371 44.8091 69.0371 41.4003Z" fill="white"/>
<path d="M80.6367 41.4003C80.6367 38.04 83.2539 35.552 86.8243 35.552C90.3947 35.552 93.0119 38.0238 93.0119 41.4003C93.0119 44.7768 90.3785 47.2486 86.8243 47.2486C83.2701 47.2486 80.6367 44.7607 80.6367 41.4003ZM90.364 41.4003C90.364 39.2516 88.8454 37.7815 86.8259 37.7815C84.8065 37.7815 83.2878 39.2516 83.2878 41.4003C83.2878 43.549 84.8065 45.0192 86.8259 45.0192C88.8454 45.0192 90.364 43.549 90.364 41.4003Z" fill="white"/>
<path d="M102.189 47.0547L100.008 43.9044H97.6006V47.0547H94.9834V35.7458H99.8785C102.9 35.7458 104.79 37.3129 104.79 39.8494C104.79 41.5457 103.934 42.7897 102.463 43.4197L105 47.0547H102.189ZM99.7331 37.8784H97.6006V41.8203H99.7331C101.333 41.8203 102.14 41.0772 102.14 39.8494C102.14 38.6215 101.333 37.8784 99.7331 37.8784Z" fill="white"/>
<path d="M116.664 39.8494C116.664 42.3696 114.774 43.9367 111.753 43.9367H109.475V47.0547H106.857V35.7458H111.753C114.774 35.7458 116.664 37.3129 116.664 39.8494ZM114.014 39.8494C114.014 38.6054 113.207 37.8784 111.607 37.8784H109.475V41.8042H111.607C113.207 41.8042 114.014 41.0772 114.014 39.8494Z" fill="white"/>
<path d="M117.973 41.4003C117.973 38.04 120.59 35.552 124.16 35.552C127.731 35.552 130.348 38.0238 130.348 41.4003C130.348 44.7768 127.714 47.2486 124.16 47.2486C120.606 47.2486 117.973 44.7607 117.973 41.4003ZM127.698 41.4003C127.698 39.2516 126.18 37.7815 124.16 37.7815C122.141 37.7815 120.622 39.2516 120.622 41.4003C120.622 43.549 122.141 45.0192 124.16 45.0192C126.18 45.0192 127.698 43.549 127.698 41.4003Z" fill="white"/>
<path d="M139.524 47.0547L137.343 43.9044H134.936V47.0547H132.318V35.7458H137.213C140.235 35.7458 142.125 37.3129 142.125 39.8494C142.125 41.5457 141.269 42.7897 139.798 43.4197L142.335 47.0547H139.524ZM137.068 37.8784H134.936V41.8203H137.068C138.667 41.8203 139.475 41.0772 139.475 39.8494C139.475 38.6215 138.667 37.8784 137.068 37.8784Z" fill="white"/>
<path d="M151.641 44.6314H146.39L145.389 47.0547H142.707L147.748 35.7458H150.332L155.389 47.0547H152.643L151.641 44.6314ZM150.817 42.6443L149.024 38.3146L147.231 42.6443H150.817Z" fill="white"/>
<path d="M158.345 37.8784H154.727V35.7458H164.581V37.8784H160.963V47.0547H158.345V37.8784Z" fill="white"/>
<path d="M165.987 35.7441H168.604V47.053H165.987V35.7441Z" fill="white"/>
<path d="M170.575 41.4003C170.575 38.04 173.192 35.552 176.763 35.552C180.333 35.552 182.95 38.0238 182.95 41.4003C182.95 44.7768 180.317 47.2486 176.763 47.2486C173.209 47.2486 170.575 44.7607 170.575 41.4003ZM180.301 41.4003C180.301 39.2516 178.782 37.7815 176.763 37.7815C174.743 37.7815 173.225 39.2516 173.225 41.4003C173.225 43.549 174.743 45.0192 176.763 45.0192C178.782 45.0192 180.301 43.549 180.301 41.4003Z" fill="white"/>
<path d="M195.293 35.7441V47.053H193.144L187.506 40.1869V47.053H184.921V35.7441H187.086L192.708 42.6103V35.7441H195.293Z" fill="white"/>
<path d="M57 1H1V57H57V1Z" fill="white"/>
<path d="M28.9666 38.5163C28.9666 38.6342 28.8583 38.6924 28.6434 38.6924L26.2767 38.7069C26.1587 38.7069 26.0957 38.7021 26.086 38.6924C25.939 38.6439 25.0941 37.4226 23.5496 35.0316C22.0051 32.6405 21.2087 31.4402 21.1602 31.4289C20.9841 31.5565 20.1165 32.8166 18.5575 35.2077C17.0583 37.5308 16.2344 38.6924 16.0873 38.6924H13.6462C13.4201 38.6924 13.3086 38.6149 13.3086 38.4565V36.3402C13.3086 36.1544 14.2295 34.8377 16.0728 32.3934C17.9162 29.9474 18.837 28.6275 18.837 28.4304C18.837 28.2155 17.921 26.8714 16.0873 24.4012C14.2537 21.931 13.3377 20.6224 13.3377 20.4754V18.212C13.3377 18.0747 13.4701 18.0068 13.7351 18.0068C14.0001 18.0068 14.4217 18.0165 14.9694 18.0359C15.5187 18.0553 15.929 18.065 16.2037 18.065C16.2521 18.065 16.4331 18.2912 16.7481 18.7419C17.669 20.1927 19.0616 22.3591 20.9227 25.2397C20.9712 25.3075 21.0552 25.3818 21.1731 25.4594C21.3104 25.3915 22.1586 24.1314 23.716 21.6806C25.254 19.2702 26.0925 18.0634 26.2298 18.0634H28.553C28.8082 18.0634 28.9359 18.1328 28.9359 18.2686V20.5319C28.9359 20.7775 28.0215 22.1152 26.1943 24.545C24.3655 26.9764 23.4527 28.2543 23.4527 28.3819C23.4527 28.5386 24.3719 29.8699 26.2088 32.374C28.0473 34.8781 28.9649 36.219 28.9649 36.3951V38.5115L28.9666 38.5163Z" fill="black"/>
<path d="M47.4761 35.2966C47.4761 35.4145 47.3824 35.5809 47.1966 35.7958C45.2854 38.0107 42.9186 39.119 40.0963 39.119C37.2739 39.119 34.8037 38.0462 33.0395 35.8992C31.3933 33.8991 30.5693 31.3998 30.5693 28.4014C30.5693 25.4029 31.4078 22.8939 33.0831 20.8745C34.8667 18.6984 37.2238 17.6111 40.1544 17.6111C43.085 17.6111 45.4228 18.616 47.0496 20.6257C47.2063 20.8309 47.2855 21.0038 47.2855 21.1411C47.2855 21.3075 47.0254 21.8002 46.5068 22.6193C45.9866 23.4384 45.6732 23.8471 45.5665 23.8471C45.4389 23.8471 45.14 23.6064 44.6699 23.1266C44.0915 22.5385 43.5471 22.0975 43.0382 21.8035C42.1949 21.3236 41.2643 21.0829 40.2449 21.0829C38.3046 21.0829 36.7941 21.8228 35.7165 23.3027C34.7552 24.6258 34.2754 26.2915 34.2754 28.3012C34.2754 30.311 34.7504 31.9911 35.702 33.3434C36.7795 34.862 38.2852 35.6229 40.2158 35.6229C41.1755 35.6229 42.1028 35.3822 42.9946 34.9024C43.5826 34.589 44.1804 34.1431 44.7878 33.5647C45.2967 33.0849 45.5762 32.8442 45.6263 32.8442C45.6845 32.8442 46.0092 33.2335 46.5973 34.0122C47.1853 34.7909 47.4794 35.2206 47.4794 35.2982L47.4761 35.2966Z" fill="black"/>
</svg>
